<svg fill="none" height="100%" width="100%" viewBox="0 0 512 512" xmlns:xlink="http://www.w3.org/1999/xlink" xmlns="http://www.w3.org/2000/svg"><defs><clipPath id="i0"><rect height="1080" width="1080" y="0" x="0" /></clipPath><g id="i1"><g transform="matrix(6,0,0,6,336,336)" visibility="hidden" id="i2"><animate repeatCount="indefinite" begin="0s" calcMode="discrete" dur="5s" values="hidden; visible; visible" keyTimes="0; 0.5; 1" attributeName="visibility" /><g id="i2" transform="matrix(1,0,0,1,0,0)"><g id="i3" transform="matrix(1,0,0,1,22.5,55.5)"><path stroke-linejoin="round" stroke-linecap="round" stroke-width="1" stroke="#263238" fill="#4db65c" d="M0,-10C-11.046,-10,-20,-1.046,-20,10C-20,10,20,10,20,10C20,-1.046,11.046,-10,0,-10Z" /></g><g id="i4" transform="matrix(1,0,0,1,47.5,58)"><path stroke-linejoin="round" stroke-linecap="round" stroke-width="1" stroke="#263238" fill="#4db65c" d="M0,-7.5C-8.284,-7.5,-15,-0.784,-15,7.5C-15,7.5,15,7.5,15,7.5C15,-0.784,8.284,-7.5,0,-7.5Z" /></g><g id="i5" transform="matrix(1,0,0,1,32.5,50)"><path stroke-linejoin="round" stroke-linecap="round" stroke-width="1" stroke="#263238" d="M2.5,-15.5C2.5,-15.5,9,15.5,9,15.5C9,15.5,-9,15.5,-9,15.5C-9,15.5,-2.5,-15.5,-2.5,-15.5" /></g></g></g><g visibility="hidden" id="i6"><animate repeatCount="indefinite" begin="0s" calcMode="discrete" dur="5s" values="hidden; visible; visible" keyTimes="0; 0.5; 1" attributeName="visibility" /><g transform="translate(531,494.874)"><g transform="rotate(0)"><animateTransform repeatCount="indefinite" type="rotate" attributeName="transform" dur="5s" begin="0s" calcMode="spline" values="0; 0; -720" keyTimes="0; 0.5; 1" keySplines="0 0 1 1; 0 0 1 1" fill="freeze" /><g transform="scale(6,6) translate(-32.5,-26.479)"><g id="i7" transform="matrix(1,0,0,1,0,0)"><g id="i8" transform="matrix(1,0,0,1,32.5,29.5)"><path stroke-linejoin="round" stroke-linecap="round" stroke-width="1" stroke="#263238" d="M15,-3C15,5.284,8.284,12,0,12C-8.284,12,-15,5.284,-15,-3C-15,-6.377,-13.884,-9.494,-12,-12" /></g><g id="i9" transform="matrix(1,0,0,1,23.657,14.5)"><path stroke-linejoin="round" stroke-linecap="round" stroke-width="1" stroke="#263238" d="M-1.355,1C-0.532,0.236,0.377,-0.436,1.355,-1" /></g></g><g><g transform="translate(32.458,26.459)"><g transform="rotate(0)"><animateTransform repeatCount="indefinite" type="rotate" attributeName="transform" dur="5s" begin="0s" calcMode="spline" values="0; 360" keyTimes="0; 1" keySplines="0 0 1 1" fill="freeze" /><g id="i6" transform="translate(-32.458,-26.459)"><g id="i10" transform="matrix(1,0,0,1,32.125,21)"><path stroke-linejoin="round" stroke-linecap="round" stroke-width="1" stroke="#263238" d="M-10.626,5.5C-10.626,-0.575,-5.7,-5.5,0.375,-5.5C5.041,-5.5,9.027,-2.596,10.626,1.504" /></g><g id="i11" transform="matrix(1,0,0,1,43.409,25.5)"><path stroke-linejoin="round" stroke-linecap="round" stroke-width="1" stroke="#263238" d="M-0.09,-1C0.029,-0.352,0.09,0.317,0.09,1" /></g></g></g></g></g></g></g></g></g><g visibility="hidden" id="i12"><animate repeatCount="indefinite" begin="0s" calcMode="discrete" dur="5s" values="hidden; visible; visible" keyTimes="0; 0.5; 1" attributeName="visibility" /><g transform="translate(531,494.95)"><g transform="rotate(0)"><animateTransform repeatCount="indefinite" type="rotate" attributeName="transform" dur="5s" begin="0s" calcMode="spline" values="0; 0; 720" keyTimes="0; 0.5; 1" keySplines="0 0 1 1; 0 0 1 1" fill="freeze" /><g transform="scale(6,6) translate(-32.5,-26.492)"><g id="i12" transform="matrix(1,0,0,1,0,0)"><g id="i13" transform="matrix(1,0,0,1,32.5,11.779)"><path stroke-linejoin="round" stroke-linecap="round" stroke-width="1" stroke="#263238" d="M-2.52,9.278C-2.52,9.278,-2.855,7.489,-2.855,7.489C-2.951,6.981,-2.968,6.461,-2.904,5.947C-2.904,5.947,-1.124,-8.286,-1.124,-8.286C-1.053,-8.853,-0.571,-9.278,0.001,-9.278C0.572,-9.278,1.053,-8.853,1.124,-8.286C1.124,-8.286,2.904,5.947,2.904,5.947C2.968,6.461,2.952,6.981,2.857,7.489C2.857,7.489,2.52,9.278,2.52,9.278" /></g><g id="i14" transform="matrix(1,0,0,1,44.766,33.119)"><path stroke-linejoin="round" stroke-linecap="round" stroke-width="1" stroke="#263238" d="M-6.286,-6.08C-6.286,-6.08,-4.572,-5.476,-4.572,-5.476C-4.083,-5.305,-3.624,-5.059,-3.212,-4.746C-3.212,-4.746,8.225,3.911,8.225,3.911C8.68,4.256,8.807,4.886,8.521,5.381C8.235,5.876,7.626,6.08,7.1,5.858C7.1,5.858,-6.115,0.282,-6.115,0.282C-6.592,0.081,-7.035,-0.193,-7.428,-0.529C-7.428,-0.529,-8.807,-1.713,-8.807,-1.713" /></g><g id="i15" transform="matrix(1,0,0,1,20.236,33.123)"><path stroke-linejoin="round" stroke-linecap="round" stroke-width="1" stroke="#263238" d="M6.265,-6.077C6.265,-6.077,4.57,-5.48,4.57,-5.48C4.082,-5.308,3.623,-5.063,3.211,-4.75C3.211,-4.75,-8.226,3.907,-8.226,3.907C-8.681,4.252,-8.809,4.882,-8.523,5.378C-8.237,5.872,-7.628,6.076,-7.102,5.854C-7.102,5.854,6.114,0.279,6.114,0.279C6.591,0.078,7.033,-0.196,7.426,-0.533C7.426,-0.533,8.809,-1.72,8.809,-1.72" /></g><g id="i16" transform="matrix(1,0,0,1,32.5,26.5)"><path stroke-linejoin="round" stroke-linecap="round" stroke-width="1" stroke="#263238" fill="#ff6840" d="M4,0C4,2.209,2.209,4,0,4C-2.209,4,-4,2.209,-4,0C-4,-2.209,-2.209,-4,0,-4C2.209,-4,4,-2.209,4,0Z" /></g></g></g></g></g></g></g><g id="i17"><g transform="matrix(6,0,0,6,336,336)" visibility="visible" id="i2"><animate repeatCount="indefinite" begin="0s" calcMode="discrete" dur="5s" values="visible; hidden; hidden" keyTimes="0; 0.5; 1" attributeName="visibility" /><g id="i2" transform="matrix(1,0,0,1,0,0)"><g id="i3" transform="matrix(1,0,0,1,22.5,55.5)"><path stroke-linejoin="round" stroke-linecap="round" stroke-width="1" stroke="#263238" fill="#4db65c" d="M0,-10C-11.046,-10,-20,-1.046,-20,10C-20,10,20,10,20,10C20,-1.046,11.046,-10,0,-10Z" /></g><g id="i4" transform="matrix(1,0,0,1,47.5,58)"><path stroke-linejoin="round" stroke-linecap="round" stroke-width="1" stroke="#263238" fill="#4db65c" d="M0,-7.5C-8.284,-7.5,-15,-0.784,-15,7.5C-15,7.5,15,7.5,15,7.5C15,-0.784,8.284,-7.5,0,-7.5Z" /></g><g id="i5" transform="matrix(1,0,0,1,32.5,50)"><path stroke-linejoin="round" stroke-linecap="round" stroke-width="1" stroke="#263238" d="M2.5,-15.5C2.5,-15.5,9,15.5,9,15.5C9,15.5,-9,15.5,-9,15.5C-9,15.5,-2.5,-15.5,-2.5,-15.5" /></g></g></g><g visibility="visible" id="i6"><animate repeatCount="indefinite" begin="0s" calcMode="discrete" dur="5s" values="visible; hidden; hidden" keyTimes="0; 0.5; 1" attributeName="visibility" /><g transform="translate(531,494.874)"><g transform="rotate(0)"><animateTransform repeatCount="indefinite" type="rotate" attributeName="transform" dur="5s" begin="0s" calcMode="spline" values="0; -720" keyTimes="0; 1" keySplines="0 0 1 1" fill="freeze" /><g transform="scale(6,6) translate(-32.5,-26.479)"><g id="i7" transform="matrix(1,0,0,1,0,0)"><g id="i8" transform="matrix(1,0,0,1,32.5,29.5)"><path stroke-linejoin="round" stroke-linecap="round" stroke-width="1" stroke="#263238" d="M15,-3C15,5.284,8.284,12,0,12C-8.284,12,-15,5.284,-15,-3C-15,-6.377,-13.884,-9.494,-12,-12" /></g><g id="i9" transform="matrix(1,0,0,1,23.657,14.5)"><path stroke-linejoin="round" stroke-linecap="round" stroke-width="1" stroke="#263238" d="M-1.355,1C-0.532,0.236,0.377,-0.436,1.355,-1" /></g></g><g><g transform="translate(32.458,26.459)"><g transform="rotate(0)"><animateTransform repeatCount="indefinite" type="rotate" attributeName="transform" dur="5s" begin="0s" calcMode="spline" values="0; 360" keyTimes="0; 1" keySplines="0 0 1 1" fill="freeze" /><g id="i6" transform="translate(-32.458,-26.459)"><g id="i10" transform="matrix(1,0,0,1,32.125,21)"><path stroke-linejoin="round" stroke-linecap="round" stroke-width="1" stroke="#263238" d="M-10.626,5.5C-10.626,-0.575,-5.7,-5.5,0.375,-5.5C5.041,-5.5,9.027,-2.596,10.626,1.504" /></g><g id="i11" transform="matrix(1,0,0,1,43.409,25.5)"><path stroke-linejoin="round" stroke-linecap="round" stroke-width="1" stroke="#263238" d="M-0.09,-1C0.029,-0.352,0.09,0.317,0.09,1" /></g></g></g></g></g></g></g></g></g><g visibility="visible" id="i12"><animate repeatCount="indefinite" begin="0s" calcMode="discrete" dur="5s" values="visible; hidden; hidden" keyTimes="0; 0.5; 1" attributeName="visibility" /><g transform="translate(531,494.95)"><g transform="rotate(0)"><animateTransform repeatCount="indefinite" type="rotate" attributeName="transform" dur="5s" begin="0s" calcMode="spline" values="0; 720" keyTimes="0; 1" keySplines="0 0 1 1" fill="freeze" /><g transform="scale(6,6) translate(-32.5,-26.492)"><g id="i12" transform="matrix(1,0,0,1,0,0)"><g id="i13" transform="matrix(1,0,0,1,32.5,11.779)"><path stroke-linejoin="round" stroke-linecap="round" stroke-width="1" stroke="#263238" d="M-2.52,9.278C-2.52,9.278,-2.855,7.489,-2.855,7.489C-2.951,6.981,-2.968,6.461,-2.904,5.947C-2.904,5.947,-1.124,-8.286,-1.124,-8.286C-1.053,-8.853,-0.571,-9.278,0.001,-9.278C0.572,-9.278,1.053,-8.853,1.124,-8.286C1.124,-8.286,2.904,5.947,2.904,5.947C2.968,6.461,2.952,6.981,2.857,7.489C2.857,7.489,2.52,9.278,2.52,9.278" /></g><g id="i14" transform="matrix(1,0,0,1,44.766,33.119)"><path stroke-linejoin="round" stroke-linecap="round" stroke-width="1" stroke="#263238" d="M-6.286,-6.08C-6.286,-6.08,-4.572,-5.476,-4.572,-5.476C-4.083,-5.305,-3.624,-5.059,-3.212,-4.746C-3.212,-4.746,8.225,3.911,8.225,3.911C8.68,4.256,8.807,4.886,8.521,5.381C8.235,5.876,7.626,6.08,7.1,5.858C7.1,5.858,-6.115,0.282,-6.115,0.282C-6.592,0.081,-7.035,-0.193,-7.428,-0.529C-7.428,-0.529,-8.807,-1.713,-8.807,-1.713" /></g><g id="i15" transform="matrix(1,0,0,1,20.236,33.123)"><path stroke-linejoin="round" stroke-linecap="round" stroke-width="1" stroke="#263238" d="M6.265,-6.077C6.265,-6.077,4.57,-5.48,4.57,-5.48C4.082,-5.308,3.623,-5.063,3.211,-4.75C3.211,-4.75,-8.226,3.907,-8.226,3.907C-8.681,4.252,-8.809,4.882,-8.523,5.378C-8.237,5.872,-7.628,6.076,-7.102,5.854C-7.102,5.854,6.114,0.279,6.114,0.279C6.591,0.078,7.033,-0.196,7.426,-0.533C7.426,-0.533,8.809,-1.72,8.809,-1.72" /></g><g id="i16" transform="matrix(1,0,0,1,32.5,26.5)"><path stroke-linejoin="round" stroke-linecap="round" stroke-width="1" stroke="#263238" fill="#ff6840" d="M4,0C4,2.209,2.209,4,0,4C-2.209,4,-4,2.209,-4,0C-4,-2.209,-2.209,-4,0,-4C2.209,-4,4,-2.209,4,0Z" /></g></g></g></g></g></g></g></defs><g transform="matrix(1,0,0,1,-284,-284)" visibility="hidden" id="i18"><animate repeatCount="indefinite" begin="0s" calcMode="discrete" dur="5s" values="hidden; visible; visible" keyTimes="0; 0.5; 1" attributeName="visibility" /><g clip-path="url(#i0)"><g transform="matrix(6,0,0,6,336,336)" visibility="hidden"><animate repeatCount="indefinite" begin="0s" calcMode="discrete" dur="5s" values="hidden; visible; visible" keyTimes="0; 0.5; 1" attributeName="visibility" /><g transform="matrix(1,0,0,1,0,0)"><g transform="matrix(1,0,0,1,22.5,55.5)"><path stroke-linejoin="round" stroke-linecap="round" stroke-width="1" stroke="#263238" fill="#4db65c" d="M0,-10C-11.046,-10,-20,-1.046,-20,10C-20,10,20,10,20,10C20,-1.046,11.046,-10,0,-10Z" /></g><g transform="matrix(1,0,0,1,47.5,58)"><path stroke-linejoin="round" stroke-linecap="round" stroke-width="1" stroke="#263238" fill="#4db65c" d="M0,-7.5C-8.284,-7.5,-15,-0.784,-15,7.5C-15,7.5,15,7.5,15,7.5C15,-0.784,8.284,-7.5,0,-7.5Z" /></g><g transform="matrix(1,0,0,1,32.5,50)"><path stroke-linejoin="round" stroke-linecap="round" stroke-width="1" stroke="#263238" d="M2.5,-15.5C2.5,-15.5,9,15.5,9,15.5C9,15.5,-9,15.5,-9,15.5C-9,15.5,-2.5,-15.5,-2.5,-15.5" /></g></g></g><g visibility="hidden"><animate repeatCount="indefinite" begin="0s" calcMode="discrete" dur="5s" values="hidden; visible; visible" keyTimes="0; 0.5; 1" attributeName="visibility" /><g transform="translate(531,494.874)"><g transform="rotate(0)"><animateTransform repeatCount="indefinite" type="rotate" attributeName="transform" dur="5s" begin="0s" calcMode="spline" values="0; 0; -720" keyTimes="0; 0.5; 1" keySplines="0 0 1 1; 0 0 1 1" fill="freeze" /><g transform="scale(6,6) translate(-32.5,-26.479)"><g transform="matrix(1,0,0,1,0,0)"><g transform="matrix(1,0,0,1,32.5,29.5)"><path stroke-linejoin="round" stroke-linecap="round" stroke-width="1" stroke="#263238" d="M15,-3C15,5.284,8.284,12,0,12C-8.284,12,-15,5.284,-15,-3C-15,-6.377,-13.884,-9.494,-12,-12" /></g><g transform="matrix(1,0,0,1,23.657,14.5)"><path stroke-linejoin="round" stroke-linecap="round" stroke-width="1" stroke="#263238" d="M-1.355,1C-0.532,0.236,0.377,-0.436,1.355,-1" /></g></g><g><g transform="translate(32.458,26.459)"><g transform="rotate(0)"><animateTransform repeatCount="indefinite" type="rotate" attributeName="transform" dur="5s" begin="0s" calcMode="spline" values="0; 360" keyTimes="0; 1" keySplines="0 0 1 1" fill="freeze" /><g transform="translate(-32.458,-26.459)"><g transform="matrix(1,0,0,1,32.125,21)"><path stroke-linejoin="round" stroke-linecap="round" stroke-width="1" stroke="#263238" d="M-10.626,5.5C-10.626,-0.575,-5.7,-5.5,0.375,-5.5C5.041,-5.5,9.027,-2.596,10.626,1.504" /></g><g transform="matrix(1,0,0,1,43.409,25.5)"><path stroke-linejoin="round" stroke-linecap="round" stroke-width="1" stroke="#263238" d="M-0.09,-1C0.029,-0.352,0.09,0.317,0.09,1" /></g></g></g></g></g></g></g></g></g><g visibility="hidden"><animate repeatCount="indefinite" begin="0s" calcMode="discrete" dur="5s" values="hidden; visible; visible" keyTimes="0; 0.5; 1" attributeName="visibility" /><g transform="translate(531,494.95)"><g transform="rotate(0)"><animateTransform repeatCount="indefinite" type="rotate" attributeName="transform" dur="5s" begin="0s" calcMode="spline" values="0; 0; 720" keyTimes="0; 0.5; 1" keySplines="0 0 1 1; 0 0 1 1" fill="freeze" /><g transform="scale(6,6) translate(-32.5,-26.492)"><g transform="matrix(1,0,0,1,0,0)"><g transform="matrix(1,0,0,1,32.5,11.779)"><path stroke-linejoin="round" stroke-linecap="round" stroke-width="1" stroke="#263238" d="M-2.52,9.278C-2.52,9.278,-2.855,7.489,-2.855,7.489C-2.951,6.981,-2.968,6.461,-2.904,5.947C-2.904,5.947,-1.124,-8.286,-1.124,-8.286C-1.053,-8.853,-0.571,-9.278,0.001,-9.278C0.572,-9.278,1.053,-8.853,1.124,-8.286C1.124,-8.286,2.904,5.947,2.904,5.947C2.968,6.461,2.952,6.981,2.857,7.489C2.857,7.489,2.52,9.278,2.52,9.278" /></g><g transform="matrix(1,0,0,1,44.766,33.119)"><path stroke-linejoin="round" stroke-linecap="round" stroke-width="1" stroke="#263238" d="M-6.286,-6.08C-6.286,-6.08,-4.572,-5.476,-4.572,-5.476C-4.083,-5.305,-3.624,-5.059,-3.212,-4.746C-3.212,-4.746,8.225,3.911,8.225,3.911C8.68,4.256,8.807,4.886,8.521,5.381C8.235,5.876,7.626,6.08,7.1,5.858C7.1,5.858,-6.115,0.282,-6.115,0.282C-6.592,0.081,-7.035,-0.193,-7.428,-0.529C-7.428,-0.529,-8.807,-1.713,-8.807,-1.713" /></g><g transform="matrix(1,0,0,1,20.236,33.123)"><path stroke-linejoin="round" stroke-linecap="round" stroke-width="1" stroke="#263238" d="M6.265,-6.077C6.265,-6.077,4.57,-5.48,4.57,-5.48C4.082,-5.308,3.623,-5.063,3.211,-4.75C3.211,-4.75,-8.226,3.907,-8.226,3.907C-8.681,4.252,-8.809,4.882,-8.523,5.378C-8.237,5.872,-7.628,6.076,-7.102,5.854C-7.102,5.854,6.114,0.279,6.114,0.279C6.591,0.078,7.033,-0.196,7.426,-0.533C7.426,-0.533,8.809,-1.72,8.809,-1.72" /></g><g transform="matrix(1,0,0,1,32.5,26.5)"><path stroke-linejoin="round" stroke-linecap="round" stroke-width="1" stroke="#263238" fill="#ff6840" d="M4,0C4,2.209,2.209,4,0,4C-2.209,4,-4,2.209,-4,0C-4,-2.209,-2.209,-4,0,-4C2.209,-4,4,-2.209,4,0Z" /></g></g></g></g></g></g></g></g><g transform="matrix(1,0,0,1,-284,-284)" visibility="visible" id="i18"><animate repeatCount="indefinite" begin="0s" calcMode="discrete" dur="5s" values="visible; hidden; hidden" keyTimes="0; 0.5; 1" attributeName="visibility" /><g clip-path="url(#i0)"><g transform="matrix(6,0,0,6,336,336)" visibility="visible"><animate repeatCount="indefinite" begin="0s" calcMode="discrete" dur="5s" values="visible; hidden; hidden" keyTimes="0; 0.5; 1" attributeName="visibility" /><g transform="matrix(1,0,0,1,0,0)"><g transform="matrix(1,0,0,1,22.5,55.5)"><path stroke-linejoin="round" stroke-linecap="round" stroke-width="1" stroke="#263238" fill="#4db65c" d="M0,-10C-11.046,-10,-20,-1.046,-20,10C-20,10,20,10,20,10C20,-1.046,11.046,-10,0,-10Z" /></g><g transform="matrix(1,0,0,1,47.5,58)"><path stroke-linejoin="round" stroke-linecap="round" stroke-width="1" stroke="#263238" fill="#4db65c" d="M0,-7.5C-8.284,-7.5,-15,-0.784,-15,7.5C-15,7.5,15,7.5,15,7.5C15,-0.784,8.284,-7.5,0,-7.5Z" /></g><g transform="matrix(1,0,0,1,32.5,50)"><path stroke-linejoin="round" stroke-linecap="round" stroke-width="1" stroke="#263238" d="M2.5,-15.5C2.5,-15.5,9,15.5,9,15.5C9,15.5,-9,15.5,-9,15.5C-9,15.5,-2.5,-15.5,-2.5,-15.5" /></g></g></g><g visibility="visible"><animate repeatCount="indefinite" begin="0s" calcMode="discrete" dur="5s" values="visible; hidden; hidden" keyTimes="0; 0.5; 1" attributeName="visibility" /><g transform="translate(531,494.874)"><g transform="rotate(0)"><animateTransform repeatCount="indefinite" type="rotate" attributeName="transform" dur="5s" begin="0s" calcMode="spline" values="0; -720" keyTimes="0; 1" keySplines="0 0 1 1" fill="freeze" /><g transform="scale(6,6) translate(-32.5,-26.479)"><g transform="matrix(1,0,0,1,0,0)"><g transform="matrix(1,0,0,1,32.5,29.5)"><path stroke-linejoin="round" stroke-linecap="round" stroke-width="1" stroke="#263238" d="M15,-3C15,5.284,8.284,12,0,12C-8.284,12,-15,5.284,-15,-3C-15,-6.377,-13.884,-9.494,-12,-12" /></g><g transform="matrix(1,0,0,1,23.657,14.5)"><path stroke-linejoin="round" stroke-linecap="round" stroke-width="1" stroke="#263238" d="M-1.355,1C-0.532,0.236,0.377,-0.436,1.355,-1" /></g></g><g><g transform="translate(32.458,26.459)"><g transform="rotate(0)"><animateTransform repeatCount="indefinite" type="rotate" attributeName="transform" dur="5s" begin="0s" calcMode="spline" values="0; 360" keyTimes="0; 1" keySplines="0 0 1 1" fill="freeze" /><g transform="translate(-32.458,-26.459)"><g transform="matrix(1,0,0,1,32.125,21)"><path stroke-linejoin="round" stroke-linecap="round" stroke-width="1" stroke="#263238" d="M-10.626,5.5C-10.626,-0.575,-5.7,-5.5,0.375,-5.5C5.041,-5.5,9.027,-2.596,10.626,1.504" /></g><g transform="matrix(1,0,0,1,43.409,25.5)"><path stroke-linejoin="round" stroke-linecap="round" stroke-width="1" stroke="#263238" d="M-0.09,-1C0.029,-0.352,0.09,0.317,0.09,1" /></g></g></g></g></g></g></g></g></g><g visibility="visible"><animate repeatCount="indefinite" begin="0s" calcMode="discrete" dur="5s" values="visible; hidden; hidden" keyTimes="0; 0.5; 1" attributeName="visibility" /><g transform="translate(531,494.95)"><g transform="rotate(0)"><animateTransform repeatCount="indefinite" type="rotate" attributeName="transform" dur="5s" begin="0s" calcMode="spline" values="0; 720" keyTimes="0; 1" keySplines="0 0 1 1" fill="freeze" /><g transform="scale(6,6) translate(-32.5,-26.492)"><g transform="matrix(1,0,0,1,0,0)"><g transform="matrix(1,0,0,1,32.5,11.779)"><path stroke-linejoin="round" stroke-linecap="round" stroke-width="1" stroke="#263238" d="M-2.52,9.278C-2.52,9.278,-2.855,7.489,-2.855,7.489C-2.951,6.981,-2.968,6.461,-2.904,5.947C-2.904,5.947,-1.124,-8.286,-1.124,-8.286C-1.053,-8.853,-0.571,-9.278,0.001,-9.278C0.572,-9.278,1.053,-8.853,1.124,-8.286C1.124,-8.286,2.904,5.947,2.904,5.947C2.968,6.461,2.952,6.981,2.857,7.489C2.857,7.489,2.52,9.278,2.52,9.278" /></g><g transform="matrix(1,0,0,1,44.766,33.119)"><path stroke-linejoin="round" stroke-linecap="round" stroke-width="1" stroke="#263238" d="M-6.286,-6.08C-6.286,-6.08,-4.572,-5.476,-4.572,-5.476C-4.083,-5.305,-3.624,-5.059,-3.212,-4.746C-3.212,-4.746,8.225,3.911,8.225,3.911C8.68,4.256,8.807,4.886,8.521,5.381C8.235,5.876,7.626,6.08,7.1,5.858C7.1,5.858,-6.115,0.282,-6.115,0.282C-6.592,0.081,-7.035,-0.193,-7.428,-0.529C-7.428,-0.529,-8.807,-1.713,-8.807,-1.713" /></g><g transform="matrix(1,0,0,1,20.236,33.123)"><path stroke-linejoin="round" stroke-linecap="round" stroke-width="1" stroke="#263238" d="M6.265,-6.077C6.265,-6.077,4.57,-5.48,4.57,-5.48C4.082,-5.308,3.623,-5.063,3.211,-4.75C3.211,-4.75,-8.226,3.907,-8.226,3.907C-8.681,4.252,-8.809,4.882,-8.523,5.378C-8.237,5.872,-7.628,6.076,-7.102,5.854C-7.102,5.854,6.114,0.279,6.114,0.279C6.591,0.078,7.033,-0.196,7.426,-0.533C7.426,-0.533,8.809,-1.72,8.809,-1.72" /></g><g transform="matrix(1,0,0,1,32.5,26.5)"><path stroke-linejoin="round" stroke-linecap="round" stroke-width="1" stroke="#263238" fill="#ff6840" d="M4,0C4,2.209,2.209,4,0,4C-2.209,4,-4,2.209,-4,0C-4,-2.209,-2.209,-4,0,-4C2.209,-4,4,-2.209,4,0Z" /></g></g></g></g></g></g></g></g></svg>